g default
v 1 0.5 0
v 1 -0.5 0
v 0.951057 0.5 0.309017
v 0.951057 -0.5 0.309017
v 0.809017 0.5 0.587785
v 0.809017 -0.5 0.587785
v 0.587785 0.5 0.809017
v 0.587785 -0.5 0.809017
v 0.309017 0.5 0.951057
v 0.309017 -0.5 0.951057
v -4.37114e-08 0.5 1
v -4.37114e-08 -0.5 1
v -0.309017 0.5 0.951056
v -0.309017 -0.5 0.951056
v -0.587785 0.5 0.809017
v -0.587785 -0.5 0.809017
v -0.809017 0.5 0.587785
v -0.809017 -0.5 0.587785
v -0.951057 0.5 0.309017
v -0.951057 -0.5 0.309017
v -1 0.5 -8.74228e-08
v -1 -0.5 -8.74228e-08
v -0.951057 0.5 -0.309017
v -0.951057 -0.5 -0.309017
v -0.809017 0.5 -0.587785
v -0.809017 -0.5 -0.587785
v -0.587785 0.5 -0.809017
v -0.587785 -0.5 -0.809017
v -0.309017 0.5 -0.951056
v -0.309017 -0.5 -0.951056
v 1.19249e-08 0.5 -1
v 1.19249e-08 -0.5 -1
v 0.309017 0.5 -0.951056
v 0.309017 -0.5 -0.951056
v 0.587785 0.5 -0.809017
v 0.587785 -0.5 -0.809017
v 0.809017 0.5 -0.587785
v 0.809017 -0.5 -0.587785
v 0.951057 0.5 -0.309017
v 0.951057 -0.5 -0.309017
v 1 0.5 1.74846e-07
v 1 -0.5 1.74846e-07
vt 0 1
vt 0 0
vt 0.05 1
vt 0.05 0
vt 0.1 1
vt 0.1 0
vt 0.15 1
vt 0.15 0
vt 0.2 1
vt 0.2 0
vt 0.25 1
vt 0.25 0
vt 0.3 1
vt 0.3 0
vt 0.35 1
vt 0.35 0
vt 0.4 1
vt 0.4 0
vt 0.45 1
vt 0.45 0
vt 0.5 1
vt 0.5 0
vt 0.55 1
vt 0.55 0
vt 0.6 1
vt 0.6 0
vt 0.65 1
vt 0.65 0
vt 0.7 1
vt 0.7 0
vt 0.75 1
vt 0.75 0
vt 0.8 1
vt 0.8 0
vt 0.85 1
vt 0.85 0
vt 0.9 1
vt 0.9 0
vt 0.95 1
vt 0.95 0
vt 1 1
vt 1 0
vn 1 0 0
vn 1 0 0
vn 0.951057 0 0.309017
vn 0.951057 0 0.309017
vn 0.809017 0 0.587785
vn 0.809017 0 0.587785
vn 0.587785 0 0.809017
vn 0.587785 0 0.809017
vn 0.309017 0 0.951057
vn 0.309017 0 0.951057
vn -4.37114e-08 0 1
vn -4.37114e-08 0 1
vn -0.309017 0 0.951056
vn -0.309017 0 0.951056
vn -0.587785 0 0.809017
vn -0.587785 0 0.809017
vn -0.809017 0 0.587785
vn -0.809017 0 0.587785
vn -0.951057 0 0.309017
vn -0.951057 0 0.309017
vn -1 0 -8.74228e-08
vn -1 0 -8.74228e-08
vn -0.951057 0 -0.309017
vn -0.951057 0 -0.309017
vn -0.809017 0 -0.587785
vn -0.809017 0 -0.587785
vn -0.587785 0 -0.809017
vn -0.587785 0 -0.809017
vn -0.309017 0 -0.951056
vn -0.309017 0 -0.951056
vn 1.19249e-08 0 -1
vn 1.19249e-08 0 -1
vn 0.309017 0 -0.951056
vn 0.309017 0 -0.951056
vn 0.587785 0 -0.809017
vn 0.587785 0 -0.809017
vn 0.809017 0 -0.587785
vn 0.809017 0 -0.587785
vn 0.951057 0 -0.309017
vn 0.951057 0 -0.309017
vn 1 0 1.74846e-07
vn 1 0 1.74846e-07
s off
f 1/1/1 3/3/3 4/4/4 2/2/2
f 3/3/3 5/5/5 6/6/6 4/4/4
f 5/5/5 7/7/7 8/8/8 6/6/6
f 7/7/7 9/9/9 10/10/10 8/8/8
f 9/9/9 11/11/11 12/12/12 10/10/10
f 11/11/11 13/13/13 14/14/14 12/12/12
f 13/13/13 15/15/15 16/16/16 14/14/14
f 15/15/15 17/17/17 18/18/18 16/16/16
f 17/17/17 19/19/19 20/20/20 18/18/18
f 19/19/19 21/21/21 22/22/22 20/20/20
f 21/21/21 23/23/23 24/24/24 22/22/22
f 23/23/23 25/25/25 26/26/26 24/24/24
f 25/25/25 27/27/27 28/28/28 26/26/26
f 27/27/27 29/29/29 30/30/30 28/28/28
f 29/29/29 31/31/31 32/32/32 30/30/30
f 31/31/31 33/33/33 34/34/34 32/32/32
f 33/33/33 35/35/35 36/36/36 34/34/34
f 35/35/35 37/37/37 38/38/38 36/36/36
f 37/37/37 39/39/39 40/40/40 38/38/38
f 39/39/39 41/41/41 42/42/42 40/40/40
